<?xml version="1.0" ?><!DOCTYPE svg  PUBLIC '-//W3C//DTD SVG 1.1//EN'  'http://www.w3.org/Graphics/SVG/1.1/DTD/svg11.dtd'><svg height="16px" id="Layer_1" style="enable-background:new 0 0 16 16;" version="1.1" viewBox="0 0 16 16" width="16px" xml:space="preserve" xmlns="http://www.w3.org/2000/svg" xmlns:xlink="http://www.w3.org/1999/xlink" fill="white"><path d="M8,7C6.896,7,6,7.896,6,9s0.896,2,2,2s2-0.896,2-2S9.104,7,8,7z M15,3h-2.503L12,1.771C11.734,1.18,11.422,1,11,1H5  C4.578,1,4.266,1.18,4,1.771L3.503,3H1C0.45,3,0,3.45,0,4v10c0,0.55,0.45,1,1,1h14c0.55,0,1-0.45,1-1V4C16,3.45,15.55,3,15,3z M8,13  c-2.209,0-4-1.791-4-4s1.791-4,4-4s4,1.791,4,4S10.209,13,8,13z"/></svg>