<svg xmlns="http://www.w3.org/2000/svg" width="290.908" height="131.03" viewBox="0 0 290.908 131.03"><defs><style>.a{fill:#a4a4a4;stroke:#a4a4a4;stroke-miterlimit:10;}</style></defs><g transform="translate(-0.32 -2.63)"><path class="a" d="M66.3,43.787c11.3-1.009,19.367-1.513,24.057-1.513,7.01,0,10.49,1.11,10.49,3.329,0,.757-1.967,1.11-5.951,1.11a237.971,237.971,0,0,0-33.791,2.875l-9.179,11.65c-6.052,7.464-9.482,11.247-10.238,11.3a3.55,3.55,0,0,1-2.723-3.48q0-2.648,13.063-18.661a129.082,129.082,0,0,1-13.92.908q-14.979,0-14.979-8.776c0-5.8,3.48-11.247,10.44-16.442,6.456-4.892,12.76-7.363,18.812-7.363,8.423,0,12.609,4.085,12.609,12.256a30.61,30.61,0,0,1-.252,3.581l17.4-20.83Q85.846,9.34,88.191,9.34c1.917,0,2.875,1.009,2.875,2.976Q91.066,16.855,66.3,43.787Zm-9.734.706q5.144-7.641,5.144-13.315c0-4.136-2.32-6.2-6.91-6.2-3.984,0-9.431,2.068-16.391,6.1-7.464,4.337-11.2,8.17-11.2,11.55,0,2.623,3.581,3.934,10.692,3.934A100.727,100.727,0,0,0,56.568,44.493Z" transform="translate(92.232 27.132)"/><g transform="translate(0.32 2.63)"><path d="M63.616,2.63,102.35,113.536c2.068,5.75,3.984,9.885,5.8,12.457s3.581,4.186,5.245,4.892a23.984,23.984,0,0,0,6.355,1.362v1.412H77.485v-1.412a32.44,32.44,0,0,0,10.037-1.21c2.32-.807,3.53-3.026,3.53-6.657a27.518,27.518,0,0,0-1.664-8.019,2.325,2.325,0,0,1-.353-1.059l-11.5-34.346H32.649L22.41,112.729a35.779,35.779,0,0,0-2.118,10.44q0,5.447,2.723,7.263t7.717,1.816v1.412H.32v-1.412A15.3,15.3,0,0,0,10.71,127.3c2.572-2.875,4.892-7.313,6.809-13.214L54.083,2.68h9.532ZM34.162,76.265H75.367L54.285,14.835h-.353Z" transform="translate(-0.32 -2.63)"/></g><g transform="translate(205.59 3.286)"><path d="M41.02,4.273V2.76H83.537A54.693,54.693,0,0,1,102.3,5.685,40.14,40.14,0,0,1,115.865,13.6a33.032,33.032,0,0,1,8.12,11.3,34.055,34.055,0,0,1,2.673,13.264,35,35,0,0,1-2.522,13.063,30.247,30.247,0,0,1-7.868,11.2A38.316,38.316,0,0,1,102.2,70.191a63.982,63.982,0,0,1-20.073,2.925q-3.631,0-13.92-1.059v44.685c0,9.23,4.69,13.97,14.071,14.273v1.412H41.02v-1.412a15.556,15.556,0,0,0,9.986-3.48c2.623-2.219,3.934-5.8,3.934-10.793V18.7a17.142,17.142,0,0,0-1.412-7.464A10.346,10.346,0,0,0,50.25,6.946,14.726,14.726,0,0,0,46.013,5.03c-1.563-.4-2.623-.656-3.228-.807H41.02ZM68.255,7.35V68.426a76.124,76.124,0,0,0,13.365,1.21c8.372,0,15.483-2.169,21.334-6.456s8.776-12.306,8.776-23.957c0-9.633-2.572-17.5-7.717-23.7S91.1,6.24,80.662,6.24A69.6,69.6,0,0,0,68.255,7.35Z" transform="translate(-41.02 -2.76)"/></g></g></svg>