<?xml version="1.0" encoding="utf-8"?>
<!-- Generator: Adobe Illustrator 24.0.0, SVG Export Plug-In . SVG Version: 6.00 Build 0)  -->
<svg version="1.1" id="Layer_1" xmlns="http://www.w3.org/2000/svg" xmlns:xlink="http://www.w3.org/1999/xlink" x="0px" y="0px"
	 viewBox="0 0 64 64" style="enable-background:new 0 0 64 64;" xml:space="preserve">
<style type="text/css">
	.st0{fill: white;stroke:white;stroke-width:0.54;}
	.st1{fill:none;stroke:white;stroke-width:0.54;}
	.st2{fill:none;stroke:white;stroke-width:4;}
</style>
<g>
	<path class="st0" d="M58.8,10.4c-5.6-6.7-15.4-9.1-24.1-6l-0.4-1.2c-0.4-1-1-1.7-1.7-1.9c-0.3-0.1-1-0.1-1.6,0.4L30.7,2
		c0,0,0,0.1-0.1,0.1l0.2-0.9V1.1c0,0,0,0,0-0.1s0-0.1-0.1-0.2c0-0.1-0.1-0.1-0.2-0.1c0,0,0,0-0.1,0h-0.1l-3.6-0.1
		c-0.1,0-0.2,0-0.3,0.1L22,4.3c-0.1,0.1-0.1,0.2-0.2,0.3l-0.7,3.6c0,0.1,0,0.3,0.1,0.4c0.1,0.1,0.2,0.1,0.4,0.1h1.2
		c-0.1,0.1-0.2,0.1-0.3,0.2l-0.3,0.3c-0.7,0.6-0.7,1.2-0.7,1.5c0.1,0.7,0.6,1.4,1.6,2l1.1,0.6c-1.4,2.4-2.3,5.2-2.7,8v0.1
		c-5,0-9.8,1.7-13.6,5c-9,7.6-10.2,21-2.6,30c4.2,5,10.3,7.6,16.3,7.6c4.8,0,9.7-1.6,13.7-5s6.6-8.1,7.4-13.2v-0.1
		c4.4,0,8.7-1.4,12.4-4.1C60,38,63,32.8,63.8,26.8C64.4,20.9,62.6,14.9,58.8,10.4z M30.2,6.7l-0.6,0.5l0.4-2L30.2,6.7z M28.8,6.4
		l-0.9-2.7l1.7-1.3L28.8,6.4z M28,7l-2.5-1.4l1.6-1.3L28,7z M26.9,1.5H29l-1.5,1.2h-0.1l-1.7-0.2L26.9,1.5z M25,3.5l1.4,0.2
		l-1.5,1.1L25,3.5z M22.3,6.9L22.8,5l1.1-1l-0.1,1.7L22.3,6.9z M22.9,7.8l1.7-1.4l2.5,1.4H22.9z M27.8,8.7l-0.6,0.5l-1.7-0.5H27.8z
		 M33.9,57.5c-8.2,6.8-20.4,5.8-27.2-2.4c-3.3-4-4.9-9-4.4-14.1c0.4-5.1,2.9-9.8,6.8-13.1c3.7-3.1,8.5-4.7,13.3-4.5
		c0.6,0,1.2,0.1,1.8,0.2c4.7,0.6,9.1,3.1,12.1,6.7c2.2,2.6,3.6,5.7,4.2,9c-0.3,0-0.6-0.1-0.9-0.1c-0.5-0.1-0.9-0.1-1.4-0.3
		c-0.6-2.6-1.8-5.1-3.6-7.1c-2.1-2.5-4.9-4.3-8-5.3c-0.8-0.2-1.6-0.4-2.4-0.5c-0.6-0.1-1.3-0.2-1.9-0.2v-0.1c-0.3,0-0.5,0-0.8,0
		c-4,0-7.8,1.4-10.9,4c-7.3,6.1-8.2,16.9-2.1,24.2c3.4,4,8.3,6.1,13.2,6.1c3.9,0,7.8-1.3,11-4s5.3-6.4,5.9-10.5
		c0.4,0,0.7,0.1,1.1,0.2c0.3,0,0.7,0.1,1,0.1C39.9,50.2,37.5,54.5,33.9,57.5z M27.3,22.2v-0.1c0.5-3.7,2.4-7.1,5.3-9.5
		c3.1-2.6,7-3.8,11.1-3.5c4,0.4,7.7,2.3,10.3,5.4s3.8,7,3.5,11.1c-0.4,4-2.3,7.7-5.4,10.3c-2.7,2.2-6.1,3.4-9.6,3.5
		c-0.6-3.8-2.2-7.4-4.7-10.4C35,25.7,31.3,23.4,27.3,22.2z M35.9,37.9c-2-0.9-3.7-2.3-5.2-4c-1.2-1.5-2.2-3.2-2.8-5
		c2,0.9,3.8,2.3,5.2,4C34.4,34.4,35.3,36.1,35.9,37.9z M26.8,39c2.7,2.9,6.1,4.8,9.7,5.8c0,0,0,0,0,0.1c-0.5,3.7-2.4,7-5.3,9.4
		c-6.4,5.4-16,4.5-21.4-1.9C4.4,46,5.3,36.4,11.7,31c2.8-2.2,6.1-3.4,9.7-3.5C22,31.9,23.8,35.9,26.8,39z M61.7,26.5
		c-0.7,5.4-3.4,10.2-7.9,13.4c-4.1,3.1-9.1,4.2-13.9,3.6c-4.3-0.5-8.4-2.5-11.6-5.8c-2.6-2.7-4.3-6.2-4.9-10c0.3,0,0.7,0.1,1,0.2
		c0.4,0.1,0.8,0.2,1.2,0.3c0.6,2.6,1.8,5.1,3.6,7.1c2.1,2.5,4.8,4.3,7.9,5.3h0.1c0.9,0.3,1.7,0.5,2.6,0.6c0.3,0,0.7,0.1,1.1,0.1h0.9
		c0,0,0,0,0.1,0h0.6c4,0,7.9-1.4,11-4c3.5-2.9,5.7-7.1,6.1-11.7c0.4-4.6-1-9-4-12.5C52.7,9.6,48.5,7.4,43.9,7c-4.6-0.4-9,1-12.5,4
		c-3.2,2.7-5.3,6.5-6,10.7c-0.3,0-0.7-0.1-1-0.2c-0.3,0-0.6-0.1-0.9-0.1c0.4-2.9,1.4-5.6,3-8.1c0.1-0.2,0.2-0.5,0.1-0.8
		c-0.1-0.3-0.3-0.4-0.6-0.5l-1.9-1.1c-0.2-0.1-0.4-0.2-0.5-0.3l0.2-0.1c0.1-0.1,0.3-0.1,0.5,0c0.1,0,0.1,0.1,0.2,0.1l2.6,0.8
		c0.3,0.1,0.7,0,0.9-0.2l3.9-3.3c0.3-0.2,0.4-0.6,0.3-0.9l-0.3-2.7c0-0.1,0-0.2-0.1-0.2c-0.1-0.2,0-0.4,0.1-0.5l0.2-0.1
		c0.1,0.1,0.2,0.3,0.2,0.5l0.9,2c0.1,0.3,0.3,0.5,0.5,0.6c0.2,0.1,0.5,0.1,0.8,0c8.1-3.3,17.5-1.2,22.8,5.1
		C60.8,15.8,62.3,21.1,61.7,26.5z"/>
	<path class="st1" d="M39.9,42.7c0,0.1,0,0.2,0,0.2c0,0.2,0,0.4,0,0.6c-4.3-0.5-8.4-2.5-11.6-5.8c-2.6-2.7-4.3-6.2-4.9-10
		c0.3,0,0.7,0.1,1,0.2c0.4,0.1,0.8,0.2,1.2,0.3c0.6,2.6,1.8,5.1,3.6,7.1c2.1,2.5,4.8,4.3,7.9,5.3h0.1c0.9,0.3,1.7,0.5,2.6,0.6
		C39.9,41.7,39.9,42.2,39.9,42.7z"/>
	<path class="st1" d="M61.7,26.5c-0.7,5.4-3.4,10.2-7.9,13.4c-4.1,3.1-9.1,4.2-13.9,3.6c0-0.2,0-0.4,0-0.6c0-0.1,0-0.2,0-0.2
		c0-0.5,0-1-0.1-1.5c0.3,0,0.7,0.1,1.1,0.1h0.9c0,0,0,0,0.1,0h0.6c4,0,7.9-1.4,11-4c3.5-2.9,5.7-7.1,6.1-11.7c0.4-4.6-1-9-4-12.5
		C52.7,9.6,48.5,7.4,43.9,7c-4.6-0.4-9,1-12.5,4c-3.2,2.7-5.3,6.5-6,10.7c-0.3,0-0.7-0.1-1-0.2c-0.3,0-0.6-0.1-0.9-0.1
		c0.4-2.9,1.4-5.6,3-8.1c0.1-0.2,0.2-0.5,0.1-0.8c-0.1-0.3-0.3-0.4-0.6-0.5l-1.9-1.1c-0.2-0.1-0.4-0.2-0.5-0.3l0.2-0.1
		c0.1-0.1,0.3-0.1,0.5,0c0.1,0,0.1,0.1,0.2,0.1l2.6,0.8c0.3,0.1,0.7,0,0.9-0.2l3.9-3.3c0.3-0.2,0.4-0.6,0.3-0.9l-0.3-2.7
		c0-0.1,0-0.2-0.1-0.2c-0.1-0.2,0-0.4,0.1-0.5l0.2-0.1c0.1,0.1,0.2,0.3,0.2,0.5l0.9,2c0.1,0.3,0.3,0.5,0.5,0.6
		c0.2,0.1,0.5,0.1,0.8,0c8.1-3.3,17.5-1.2,22.8,5.1C60.8,15.8,62.3,21.1,61.7,26.5z"/>
	<path class="st1" d="M40.7,45.8c-0.8,4.4-3.2,8.7-6.8,11.7c-8.2,6.8-20.4,5.8-27.2-2.4c-3.3-4-4.9-9-4.4-14.1
		c0.4-5.1,2.9-9.8,6.8-13.1c3.7-3.1,8.5-4.7,13.3-4.5c0.6,0,1.2,0.1,1.8,0.2c4.7,0.6,9.1,3.1,12.1,6.7c2.2,2.6,3.6,5.7,4.2,9
		c-0.3,0-0.6-0.1-0.9-0.1c-0.5-0.1-0.9-0.1-1.4-0.3c-0.6-2.6-1.8-5.1-3.6-7.1c-2.1-2.5-4.9-4.3-8-5.3c-0.8-0.2-1.6-0.4-2.4-0.5
		c-0.6-0.1-1.3-0.2-1.9-0.2v-0.1c-0.3,0-0.5,0-0.8,0c-4,0-7.8,1.4-10.9,4c-7.3,6.1-8.2,16.9-2.1,24.2c3.4,4,8.3,6.1,13.2,6.1
		c3.9,0,7.8-1.3,11-4s5.3-6.4,5.9-10.5c0.4,0,0.7,0.1,1.1,0.2C40,45.7,40.4,45.8,40.7,45.8z"/>
</g>
<path class="st2" d="M39.9,43.5c0,0.7-0.1,1.4-0.2,2.1c-0.4-0.1-0.7-0.1-1.1-0.2c-0.6,4.1-2.7,7.8-5.9,10.5s-7.1,4-11,4
	c-4.9,0-9.8-2.1-13.2-6.1c-6.1-7.3-5.2-18.1,2.1-24.2c3.1-2.6,6.9-4,10.9-4c0.3,0,0.5,0,0.8,0v0.1c0.6,0,1.3,0.1,1.9,0.2
	c0.8,0.1,1.6,0.3,2.4,0.5c3.1,1,5.9,2.8,8,5.3c1.8,2,3,4.5,3.6,7.1c0.5,0.1,0.9,0.2,1.4,0.3c0.1,0.7,0.2,1.3,0.3,2
	c-0.9-0.1-1.8-0.3-2.6-0.6h-0.1c-3.1-1-5.8-2.8-7.9-5.3c-1.8-2-3-4.5-3.6-7.1c-0.4-0.2-0.8-0.3-1.2-0.3c-0.3-0.1-0.7-0.1-1-0.2
	c0.6,3.8,2.3,7.3,4.9,10C31.5,41,35.6,43,39.9,43.5z"/>
<path class="st2" d="M55.6,13.1C52.7,9.6,48.5,7.4,43.9,7c-4.6-0.4-9,1-12.5,4c-3.2,2.7-5.3,6.5-6,10.7c-0.3,0-0.7-0.1-1-0.2
	c-0.1,0.7-0.2,1.3-0.2,2c4.7,0.6,9.1,3.1,12.1,6.7c2.2,2.6,3.6,5.7,4.2,9c-0.3,0-0.6-0.1-0.9-0.1c-0.5-0.1-0.9-0.1-1.4-0.3
	c-0.6-2.6-1.8-5.1-3.6-7.1c-2.1-2.5-4.9-4.3-8-5.3c-0.8-0.2-1.6-0.4-2.4-0.5c0,0.6,0.1,1.3,0.2,1.9c0.4,0.1,0.8,0.2,1.2,0.3
	c0.6,2.6,1.8,5.1,3.6,7.1c2.1,2.5,4.8,4.3,7.9,5.3h0.1c0.9,0.3,1.7,0.5,2.6,0.6c0.3,0,0.7,0.1,1.1,0.1h0.9c0,0,0,0,0.1,0h0.6
	c4,0,7.9-1.4,11-4c3.5-2.9,5.7-7.1,6.1-11.7C60,21,58.6,16.6,55.6,13.1z M57.5,25.6c-0.4,4-2.3,7.7-5.4,10.3
	c-2.7,2.2-6.1,3.4-9.6,3.5c-0.6-3.8-2.2-7.4-4.7-10.4c-2.8-3.3-6.5-5.6-10.5-6.8v-0.1c0.5-3.7,2.4-7.1,5.3-9.5
	c3.1-2.6,7-3.8,11.1-3.5c4,0.4,7.7,2.3,10.3,5.4S57.8,21.5,57.5,25.6z"/>
</svg>
